<mxfile host="app.diagrams.net" modified="2022-12-06T03:13:04.220Z" agent="5.0 (Windows NT 10.0; Win64; x64) AppleWebKit/537.36 (KHTML, like Gecko) Chrome/108.0.0.0 Safari/537.36" version="20.6.0" etag="3SU88xoOkK6AtNCe3X1Q" type="github">
  <diagram id="Ecd_eWqWoZM5zjbNZgDJ" name="第 1 页">
    <mxGraphModel dx="782" dy="468" grid="1" gridSize="10" guides="1" tooltips="1" connect="1" arrows="0" fold="1" page="1" pageScale="1" pageWidth="827" pageHeight="1169" math="0" shadow="0">
      <root>
        <mxCell id="0" />
        <mxCell id="1" parent="0" />
        <mxCell id="MOnNH2Qstuotwr1Vei9A-5" style="edgeStyle=orthogonalEdgeStyle;rounded=0;orthogonalLoop=1;jettySize=auto;html=1;exitX=0.5;exitY=1;exitDx=0;exitDy=0;" edge="1" parent="1" source="MOnNH2Qstuotwr1Vei9A-1" target="MOnNH2Qstuotwr1Vei9A-4">
          <mxGeometry relative="1" as="geometry" />
        </mxCell>
        <mxCell id="MOnNH2Qstuotwr1Vei9A-1" value="Inquiry" style="rounded=0;whiteSpace=wrap;html=1;" vertex="1" parent="1">
          <mxGeometry x="330" y="100" width="70" height="40" as="geometry" />
        </mxCell>
        <mxCell id="MOnNH2Qstuotwr1Vei9A-20" style="edgeStyle=orthogonalEdgeStyle;rounded=0;orthogonalLoop=1;jettySize=auto;html=1;" edge="1" parent="1" source="MOnNH2Qstuotwr1Vei9A-4" target="MOnNH2Qstuotwr1Vei9A-19">
          <mxGeometry relative="1" as="geometry" />
        </mxCell>
        <mxCell id="MOnNH2Qstuotwr1Vei9A-22" style="edgeStyle=orthogonalEdgeStyle;rounded=0;orthogonalLoop=1;jettySize=auto;html=1;" edge="1" parent="1" source="MOnNH2Qstuotwr1Vei9A-4" target="MOnNH2Qstuotwr1Vei9A-21">
          <mxGeometry relative="1" as="geometry" />
        </mxCell>
        <mxCell id="MOnNH2Qstuotwr1Vei9A-4" value="Quotaion" style="rounded=0;whiteSpace=wrap;html=1;" vertex="1" parent="1">
          <mxGeometry x="330" y="170" width="70" height="40" as="geometry" />
        </mxCell>
        <mxCell id="MOnNH2Qstuotwr1Vei9A-19" value="Contract" style="rounded=0;whiteSpace=wrap;html=1;" vertex="1" parent="1">
          <mxGeometry x="430" y="170" width="70" height="40" as="geometry" />
        </mxCell>
        <mxCell id="MOnNH2Qstuotwr1Vei9A-24" style="edgeStyle=orthogonalEdgeStyle;rounded=0;orthogonalLoop=1;jettySize=auto;html=1;" edge="1" parent="1" source="MOnNH2Qstuotwr1Vei9A-21" target="MOnNH2Qstuotwr1Vei9A-23">
          <mxGeometry relative="1" as="geometry" />
        </mxCell>
        <mxCell id="MOnNH2Qstuotwr1Vei9A-26" style="edgeStyle=orthogonalEdgeStyle;rounded=0;orthogonalLoop=1;jettySize=auto;html=1;" edge="1" parent="1" source="MOnNH2Qstuotwr1Vei9A-21" target="MOnNH2Qstuotwr1Vei9A-25">
          <mxGeometry relative="1" as="geometry" />
        </mxCell>
        <mxCell id="MOnNH2Qstuotwr1Vei9A-28" style="edgeStyle=orthogonalEdgeStyle;rounded=0;orthogonalLoop=1;jettySize=auto;html=1;" edge="1" parent="1" source="MOnNH2Qstuotwr1Vei9A-21" target="MOnNH2Qstuotwr1Vei9A-27">
          <mxGeometry relative="1" as="geometry" />
        </mxCell>
        <mxCell id="MOnNH2Qstuotwr1Vei9A-21" value="Sales Order" style="rounded=0;whiteSpace=wrap;html=1;" vertex="1" parent="1">
          <mxGeometry x="330" y="230" width="70" height="40" as="geometry" />
        </mxCell>
        <mxCell id="MOnNH2Qstuotwr1Vei9A-23" value="Return Order" style="rounded=0;whiteSpace=wrap;html=1;" vertex="1" parent="1">
          <mxGeometry x="430" y="230" width="70" height="40" as="geometry" />
        </mxCell>
        <mxCell id="MOnNH2Qstuotwr1Vei9A-25" value="Scheduling agreenebt" style="rounded=0;whiteSpace=wrap;html=1;" vertex="1" parent="1">
          <mxGeometry x="240" y="230" width="70" height="40" as="geometry" />
        </mxCell>
        <mxCell id="MOnNH2Qstuotwr1Vei9A-30" style="edgeStyle=orthogonalEdgeStyle;rounded=0;orthogonalLoop=1;jettySize=auto;html=1;" edge="1" parent="1" source="MOnNH2Qstuotwr1Vei9A-27" target="MOnNH2Qstuotwr1Vei9A-29">
          <mxGeometry relative="1" as="geometry" />
        </mxCell>
        <mxCell id="MOnNH2Qstuotwr1Vei9A-32" style="edgeStyle=orthogonalEdgeStyle;rounded=0;orthogonalLoop=1;jettySize=auto;html=1;" edge="1" parent="1" source="MOnNH2Qstuotwr1Vei9A-27" target="MOnNH2Qstuotwr1Vei9A-31">
          <mxGeometry relative="1" as="geometry" />
        </mxCell>
        <mxCell id="MOnNH2Qstuotwr1Vei9A-27" value="Delivery" style="rounded=0;whiteSpace=wrap;html=1;" vertex="1" parent="1">
          <mxGeometry x="330" y="290" width="70" height="40" as="geometry" />
        </mxCell>
        <mxCell id="MOnNH2Qstuotwr1Vei9A-29" value="transportation" style="rounded=0;whiteSpace=wrap;html=1;" vertex="1" parent="1">
          <mxGeometry x="430" y="290" width="90" height="40" as="geometry" />
        </mxCell>
        <mxCell id="MOnNH2Qstuotwr1Vei9A-31" value="Invoice" style="rounded=0;whiteSpace=wrap;html=1;" vertex="1" parent="1">
          <mxGeometry x="330" y="350" width="70" height="40" as="geometry" />
        </mxCell>
      </root>
    </mxGraphModel>
  </diagram>
</mxfile>
